<svg width="564" height="260" viewBox="0 0 564 260" fill="none" xmlns="http://www.w3.org/2000/svg">
<path d="M37.016 51H29.72L13.656 17.784L7.768 51H0.472L8.344 6.456H15.64L31.768 39.608L37.592 6.456H44.888L37.016 51ZM47.301 33.208C47.941 29.6667 49.221 26.5307 51.141 23.8C53.1037 21.0693 55.493 18.9573 58.309 17.464C61.125 15.928 64.069 15.16 67.141 15.16C69.9143 15.16 72.2397 15.7147 74.117 16.824C75.9943 17.8907 77.4023 19.2347 78.341 20.856L79.237 15.736H86.597L80.389 51H73.029L73.989 45.752C72.453 47.416 70.5117 48.8027 68.165 49.912C65.861 51.0213 63.3437 51.576 60.613 51.576C57.9677 51.576 55.5997 50.9787 53.509 49.784C51.461 48.5893 49.8397 46.904 48.645 44.728C47.493 42.5093 46.917 39.9707 46.917 37.112C46.917 35.832 47.045 34.5307 47.301 33.208ZM76.165 33.336C76.3357 32.5253 76.421 31.6507 76.421 30.712C76.421 27.8533 75.5677 25.6133 73.861 23.992C72.197 22.328 70.1063 21.496 67.589 21.496C65.7117 21.496 63.877 21.9653 62.085 22.904C60.293 23.8 58.7357 25.144 57.413 26.936C56.0903 28.6853 55.2157 30.776 54.789 33.208C54.6183 34.0187 54.533 34.8933 54.533 35.832C54.533 38.7333 55.365 41.0373 57.029 42.744C58.7357 44.408 60.8477 45.24 63.365 45.24C65.2423 45.24 67.077 44.7707 68.869 43.832C70.661 42.8933 72.2183 41.528 73.541 39.736C74.8637 37.9013 75.7383 35.768 76.165 33.336ZM59.973 12.088C60.6983 9.61333 61.8077 7.75733 63.301 6.52C64.837 5.24 66.565 4.6 68.485 4.6C69.2957 4.6 69.957 4.728 70.469 4.984C70.981 5.19733 71.6637 5.58133 72.517 6.136C73.0717 6.56266 73.541 6.88266 73.925 7.096C74.3517 7.30933 74.8423 7.416 75.397 7.416C76.1223 7.416 76.7837 7.20266 77.381 6.776C77.9783 6.30666 78.405 5.624 78.661 4.728H82.757C81.989 7.20266 80.837 9.08 79.301 10.36C77.8077 11.5973 76.101 12.216 74.181 12.216C73.3703 12.216 72.6877 12.088 72.133 11.832C71.5783 11.576 70.917 11.1707 70.149 10.616C69.509 10.1467 68.997 9.82667 68.613 9.656C68.229 9.44267 67.781 9.336 67.269 9.336C66.5437 9.336 65.9037 9.57066 65.349 10.04C64.7943 10.5093 64.3677 11.192 64.069 12.088H59.973ZM105.396 51.576C102.409 51.576 99.7853 50.9573 97.524 49.72C95.2627 48.4827 93.492 46.7333 92.212 44.472C90.9747 42.2107 90.356 39.6293 90.356 36.728C90.356 32.76 91.2733 29.1333 93.108 25.848C94.9853 22.5627 97.5453 19.96 100.788 18.04C104.073 16.12 107.721 15.16 111.732 15.16C114.719 15.16 117.364 15.8 119.668 17.08C121.972 18.3173 123.764 20.0667 125.044 22.328C126.367 24.5467 127.028 27.128 127.028 30.072C127.028 34.04 126.068 37.6667 124.148 40.952C122.228 44.2373 119.625 46.84 116.34 48.76C113.055 50.6373 109.407 51.576 105.396 51.576ZM106.292 45.432C108.724 45.432 110.943 44.7493 112.948 43.384C114.996 41.976 116.596 40.1413 117.748 37.88C118.9 35.576 119.476 33.1227 119.476 30.52C119.476 27.576 118.644 25.3147 116.98 23.736C115.316 22.1147 113.225 21.304 110.708 21.304C108.233 21.304 106.015 22.008 104.052 23.416C102.132 24.7813 100.617 26.6373 99.508 28.984C98.4413 31.288 97.908 33.7627 97.908 36.408C97.908 39.2667 98.676 41.4853 100.212 43.064C101.791 44.6427 103.817 45.432 106.292 45.432ZM171.476 15.16C175.871 15.16 179.369 16.3973 181.972 18.872C184.617 21.3467 185.94 24.6747 185.94 28.856C185.94 29.8373 185.833 31.0107 185.62 32.376C185.449 33.3147 185.151 34.4667 184.724 35.832H157.78C157.737 36.1307 157.716 36.5787 157.716 37.176C157.716 39.6933 158.484 41.6987 160.02 43.192C161.599 44.6853 163.647 45.432 166.164 45.432C170.132 45.432 173.183 43.7893 175.316 40.504H183.188C181.567 43.7467 179.177 46.4133 176.02 48.504C172.863 50.552 169.215 51.576 165.076 51.576C162.132 51.576 159.551 51 157.332 49.848C155.113 48.696 153.385 47.0533 152.148 44.92C150.911 42.744 150.292 40.2053 150.292 37.304C150.292 36.0667 150.42 34.744 150.676 33.336C151.316 29.7093 152.617 26.5307 154.58 23.8C156.543 21.0267 158.975 18.8933 161.876 17.4C164.82 15.9067 168.02 15.16 171.476 15.16ZM178.324 30.584C178.409 29.816 178.452 29.2613 178.452 28.92C178.452 26.5733 177.663 24.7173 176.084 23.352C174.548 21.9867 172.543 21.304 170.068 21.304C167.465 21.304 165.119 22.136 163.028 23.8C160.937 25.464 159.508 27.7253 158.74 30.584H178.324ZM179.476 6.264L164.052 13.24L165.012 7.864L180.564 0.0559959L179.476 6.264ZM209.364 33.208C210.004 29.6667 211.284 26.5307 213.204 23.8C215.166 21.0693 217.556 18.9573 220.372 17.464C223.188 15.928 226.132 15.16 229.204 15.16C231.977 15.16 234.302 15.7147 236.18 16.824C238.057 17.8907 239.465 19.2347 240.404 20.856L241.3 15.736H248.66L242.451 51H235.092L236.052 45.752C234.516 47.416 232.574 48.8027 230.228 49.912C227.924 51.0213 225.406 51.576 222.676 51.576C220.03 51.576 217.662 50.9787 215.572 49.784C213.524 48.5893 211.902 46.904 210.708 44.728C209.556 42.5093 208.98 39.9707 208.98 37.112C208.98 35.832 209.108 34.5307 209.364 33.208ZM238.228 33.336C238.398 32.5253 238.484 31.6507 238.484 30.712C238.484 27.8533 237.63 25.6133 235.924 23.992C234.26 22.328 232.169 21.496 229.652 21.496C227.774 21.496 225.94 21.9653 224.148 22.904C222.356 23.8 220.798 25.144 219.476 26.936C218.153 28.6853 217.278 30.776 216.852 33.208C216.681 34.0187 216.595 34.8933 216.595 35.832C216.595 38.7333 217.428 41.0373 219.092 42.744C220.798 44.408 222.91 45.24 225.428 45.24C227.305 45.24 229.14 44.7707 230.932 43.832C232.724 42.8933 234.281 41.528 235.604 39.736C236.926 37.9013 237.801 35.768 238.228 33.336ZM264.643 20.92C266.179 19.2987 268.099 17.9333 270.403 16.824C272.749 15.7147 275.267 15.16 277.955 15.16C280.643 15.16 283.032 15.736 285.123 16.888C287.213 18.04 288.835 19.6827 289.987 21.816C291.139 23.9493 291.715 26.4453 291.715 29.304C291.715 30.5413 291.587 31.8427 291.331 33.208C290.691 36.7493 289.389 39.928 287.427 42.744C285.507 45.5173 283.139 47.6933 280.323 49.272C277.549 50.808 274.627 51.576 271.555 51.576C268.867 51.576 266.563 51.0427 264.643 49.976C262.765 48.8667 261.293 47.5013 260.227 45.88L256.387 67.768H249.09L258.243 15.736H265.539L264.643 20.92ZM283.907 33.208C284.077 32.3973 284.163 31.5227 284.163 30.584C284.163 27.7253 283.309 25.5067 281.603 23.928C279.939 22.3067 277.827 21.496 275.267 21.496C273.432 21.496 271.597 21.9653 269.763 22.904C267.971 23.8427 266.413 25.208 265.091 27C263.768 28.792 262.893 30.904 262.467 33.336C262.296 34.1467 262.211 35.0213 262.211 35.96C262.211 38.8187 263.043 41.08 264.707 42.744C266.413 44.408 268.525 45.24 271.043 45.24C272.92 45.24 274.755 44.7707 276.547 43.832C278.381 42.8507 279.96 41.4427 281.283 39.608C282.605 37.7733 283.48 35.64 283.907 33.208ZM316.914 15.16C321.308 15.16 324.807 16.3973 327.41 18.872C330.055 21.3467 331.378 24.6747 331.378 28.856C331.378 29.8373 331.271 31.0107 331.058 32.376C330.887 33.3147 330.588 34.4667 330.162 35.832H303.218C303.175 36.1307 303.154 36.5787 303.154 37.176C303.154 39.6933 303.922 41.6987 305.458 43.192C307.036 44.6853 309.084 45.432 311.602 45.432C315.57 45.432 318.62 43.7893 320.754 40.504H328.626C327.004 43.7467 324.615 46.4133 321.458 48.504C318.3 50.552 314.652 51.576 310.514 51.576C307.57 51.576 304.988 51 302.77 49.848C300.551 48.696 298.823 47.0533 297.586 44.92C296.348 42.744 295.73 40.2053 295.73 37.304C295.73 36.0667 295.858 34.744 296.114 33.336C296.754 29.7093 298.055 26.5307 300.018 23.8C301.98 21.0267 304.412 18.8933 307.314 17.4C310.258 15.9067 313.458 15.16 316.914 15.16ZM323.762 30.584C323.847 29.816 323.89 29.2613 323.89 28.92C323.89 26.5733 323.1 24.7173 321.522 23.352C319.986 21.9867 317.98 21.304 315.506 21.304C312.903 21.304 310.556 22.136 308.466 23.8C306.375 25.464 304.946 27.7253 304.178 30.584H323.762ZM359.038 15.16C362.75 15.16 365.694 16.1627 367.87 18.168C370.088 20.1307 371.198 22.968 371.198 26.68C371.198 27.6187 371.091 28.792 370.878 30.2L367.166 51H359.934L363.454 31.288C363.624 30.0933 363.71 29.24 363.71 28.728C363.71 26.3813 363.048 24.5893 361.726 23.352C360.446 22.1147 358.654 21.496 356.35 21.496C353.576 21.496 351.23 22.3493 349.31 24.056C347.432 25.72 346.238 28.1307 345.726 31.288V31.096L342.206 51H334.91L341.118 15.736H348.414L347.71 19.832C349.16 18.3813 350.867 17.2507 352.83 16.44C354.835 15.5867 356.904 15.16 359.038 15.16ZM377.176 33.208C377.816 29.6667 379.096 26.5307 381.016 23.8C382.979 21.0693 385.368 18.9573 388.184 17.464C391 15.928 393.944 15.16 397.016 15.16C399.789 15.16 402.115 15.7147 403.992 16.824C405.869 17.8907 407.277 19.2347 408.216 20.856L409.112 15.736H416.472L410.264 51H402.904L403.864 45.752C402.328 47.416 400.387 48.8027 398.04 49.912C395.736 51.0213 393.219 51.576 390.488 51.576C387.843 51.576 385.475 50.9787 383.384 49.784C381.336 48.5893 379.715 46.904 378.52 44.728C377.368 42.5093 376.792 39.9707 376.792 37.112C376.792 35.832 376.92 34.5307 377.176 33.208ZM406.04 33.336C406.211 32.5253 406.296 31.6507 406.296 30.712C406.296 27.8533 405.443 25.6133 403.736 23.992C402.072 22.328 399.981 21.496 397.464 21.496C395.587 21.496 393.752 21.9653 391.96 22.904C390.168 23.8 388.611 25.144 387.288 26.936C385.965 28.6853 385.091 30.776 384.664 33.208C384.493 34.0187 384.408 34.8933 384.408 35.832C384.408 38.7333 385.24 41.0373 386.904 42.744C388.611 44.408 390.723 45.24 393.24 45.24C395.117 45.24 396.952 44.7707 398.744 43.832C400.536 42.8933 402.093 41.528 403.416 39.736C404.739 37.9013 405.613 35.768 406.04 33.336ZM432.839 51.576C430.407 51.576 428.188 51.1707 426.183 50.36C424.178 49.5067 422.599 48.3333 421.447 46.84C420.295 45.304 419.719 43.5547 419.719 41.592C419.719 41.2507 419.762 40.7813 419.847 40.184H426.951C426.78 41.8053 427.271 43.1493 428.423 44.216C429.575 45.2827 431.196 45.816 433.287 45.816C435.335 45.816 437.02 45.4533 438.343 44.728C439.666 44.0027 440.327 42.936 440.327 41.528C440.327 40.3333 439.772 39.3733 438.663 38.648C437.596 37.9227 435.868 37.112 433.479 36.216C431.218 35.32 429.383 34.488 427.975 33.72C426.567 32.952 425.351 31.9067 424.327 30.584C423.303 29.2187 422.791 27.5333 422.791 25.528C422.791 23.48 423.367 21.688 424.519 20.152C425.714 18.5733 427.356 17.3573 429.447 16.504C431.58 15.608 434.012 15.16 436.743 15.16C439.218 15.16 441.415 15.5867 443.335 16.44C445.298 17.2507 446.812 18.424 447.879 19.96C448.988 21.4533 449.543 23.1813 449.543 25.144C449.543 25.7413 449.522 26.1893 449.479 26.488H442.567C442.738 24.824 442.247 23.48 441.095 22.456C439.986 21.432 438.386 20.92 436.295 20.92C434.46 20.92 432.967 21.304 431.815 22.072C430.706 22.84 430.151 23.8853 430.151 25.208C430.151 26.5307 430.727 27.5973 431.879 28.408C433.031 29.176 434.802 30.0293 437.191 30.968C439.367 31.8213 441.138 32.632 442.503 33.4C443.868 34.168 445.042 35.192 446.023 36.472C447.004 37.752 447.495 39.352 447.495 41.272C447.495 43.3627 446.855 45.1973 445.575 46.776C444.338 48.312 442.61 49.5067 440.391 50.36C438.172 51.1707 435.655 51.576 432.839 51.576ZM38.616 111.736L32.408 147H25.112L25.816 142.84C24.408 144.291 22.7013 145.443 20.696 146.296C18.7333 147.107 16.7067 147.512 14.616 147.512C10.904 147.512 7.93867 146.509 5.72 144.504C3.50133 142.499 2.392 139.661 2.392 135.992C2.392 135.011 2.49867 133.837 2.712 132.472L6.36 111.736H13.592L10.136 131.384C9.96533 132.579 9.88 133.432 9.88 133.944C9.88 136.291 10.52 138.083 11.8 139.32C13.1227 140.557 14.936 141.176 17.24 141.176C19.928 141.176 22.2107 140.387 24.088 138.808C25.9653 137.187 27.2027 134.861 27.8 131.832L31.32 111.736H38.616ZM91.0585 111.16C94.7705 111.16 97.7358 112.163 99.9545 114.168C102.173 116.173 103.283 119.011 103.283 122.68C103.283 123.661 103.176 124.835 102.963 126.2L99.2505 147H92.0185L95.5385 127.288C95.7092 126.093 95.7945 125.24 95.7945 124.728C95.7945 122.381 95.1332 120.589 93.8105 119.352C92.5305 118.115 90.7385 117.496 88.4345 117.496C85.6612 117.496 83.3145 118.349 81.3945 120.056C79.5172 121.72 78.3225 124.131 77.8105 127.288L74.2905 147H67.0585L70.5785 127.288C70.7492 126.093 70.8345 125.24 70.8345 124.728C70.8345 122.381 70.1732 120.589 68.8505 119.352C67.5705 118.115 65.7785 117.496 63.4745 117.496C60.7012 117.496 58.3545 118.349 56.4345 120.056C54.5572 121.72 53.3625 124.131 52.8505 127.288V127.096L49.3305 147H42.0345L48.2425 111.736H55.5385L54.8345 115.832C56.2425 114.381 57.9278 113.251 59.8905 112.44C61.8958 111.587 63.9652 111.16 66.0985 111.16C68.9145 111.16 71.3252 111.757 73.3305 112.952C75.3785 114.147 76.8078 115.875 77.6185 118.136C79.0265 116.003 80.9678 114.317 83.4425 113.08C85.9172 111.8 88.4558 111.16 91.0585 111.16ZM109.239 129.208C109.879 125.667 111.159 122.531 113.079 119.8C115.041 117.069 117.431 114.957 120.247 113.464C123.063 111.928 126.007 111.16 129.079 111.16C131.852 111.16 134.177 111.715 136.055 112.824C137.932 113.891 139.34 115.235 140.279 116.856L141.175 111.736H148.535L142.326 147H134.967L135.927 141.752C134.391 143.416 132.449 144.803 130.103 145.912C127.799 147.021 125.281 147.576 122.551 147.576C119.905 147.576 117.537 146.979 115.447 145.784C113.399 144.589 111.777 142.904 110.583 140.728C109.431 138.509 108.855 135.971 108.855 133.112C108.855 131.832 108.983 130.531 109.239 129.208ZM138.103 129.336C138.273 128.525 138.359 127.651 138.359 126.712C138.359 123.853 137.505 121.613 135.799 119.992C134.135 118.328 132.044 117.496 129.527 117.496C127.649 117.496 125.815 117.965 124.023 118.904C122.231 119.8 120.673 121.144 119.351 122.936C118.028 124.685 117.153 126.776 116.727 129.208C116.556 130.019 116.47 130.893 116.47 131.832C116.47 134.733 117.303 137.037 118.967 138.744C120.673 140.408 122.785 141.24 125.303 141.24C127.18 141.24 129.015 140.771 130.807 139.832C132.599 138.893 134.156 137.528 135.479 135.736C136.801 133.901 137.676 131.768 138.103 129.336ZM339.196 138.232L328.38 155.896H323.643L331.26 138.232H339.196ZM384.726 111.16C389.121 111.16 392.619 112.397 395.222 114.872C397.867 117.347 399.19 120.675 399.19 124.856C399.19 125.837 399.083 127.011 398.87 128.376C398.699 129.315 398.401 130.467 397.974 131.832H371.03C370.987 132.131 370.966 132.579 370.966 133.176C370.966 135.693 371.734 137.699 373.27 139.192C374.849 140.685 376.897 141.432 379.414 141.432C383.382 141.432 386.433 139.789 388.566 136.504H396.438C394.817 139.747 392.427 142.413 389.27 144.504C386.113 146.552 382.465 147.576 378.326 147.576C375.382 147.576 372.801 147 370.582 145.848C368.363 144.696 366.635 143.053 365.398 140.92C364.161 138.744 363.542 136.205 363.542 133.304C363.542 132.067 363.67 130.744 363.926 129.336C364.566 125.709 365.867 122.531 367.83 119.8C369.793 117.027 372.225 114.893 375.126 113.4C378.07 111.907 381.27 111.16 384.726 111.16ZM391.574 126.584C391.659 125.816 391.702 125.261 391.702 124.92C391.702 122.573 390.913 120.717 389.334 119.352C387.798 117.987 385.793 117.304 383.318 117.304C380.715 117.304 378.369 118.136 376.278 119.8C374.187 121.464 372.758 123.725 371.99 126.584H391.574ZM392.726 102.264L377.302 109.24L378.262 103.864L393.814 96.056L392.726 102.264ZM38.616 207.736L32.408 243H25.112L25.816 238.84C24.408 240.291 22.7013 241.443 20.696 242.296C18.7333 243.107 16.7067 243.512 14.616 243.512C10.904 243.512 7.93867 242.509 5.72 240.504C3.50133 238.499 2.392 235.661 2.392 231.992C2.392 231.011 2.49867 229.837 2.712 228.472L6.36 207.736H13.592L10.136 227.384C9.96533 228.579 9.88 229.432 9.88 229.944C9.88 232.291 10.52 234.083 11.8 235.32C13.1227 236.557 14.936 237.176 17.24 237.176C19.928 237.176 22.2107 236.387 24.088 234.808C25.9653 233.187 27.2027 230.861 27.8 227.832L31.32 207.736H38.616ZM91.0585 207.16C94.7705 207.16 97.7358 208.163 99.9545 210.168C102.173 212.173 103.283 215.011 103.283 218.68C103.283 219.661 103.176 220.835 102.963 222.2L99.2505 243H92.0185L95.5385 223.288C95.7092 222.093 95.7945 221.24 95.7945 220.728C95.7945 218.381 95.1332 216.589 93.8105 215.352C92.5305 214.115 90.7385 213.496 88.4345 213.496C85.6612 213.496 83.3145 214.349 81.3945 216.056C79.5172 217.72 78.3225 220.131 77.8105 223.288L74.2905 243H67.0585L70.5785 223.288C70.7492 222.093 70.8345 221.24 70.8345 220.728C70.8345 218.381 70.1732 216.589 68.8505 215.352C67.5705 214.115 65.7785 213.496 63.4745 213.496C60.7012 213.496 58.3545 214.349 56.4345 216.056C54.5572 217.72 53.3625 220.131 52.8505 223.288V223.096L49.3305 243H42.0345L48.2425 207.736H55.5385L54.8345 211.832C56.2425 210.381 57.9278 209.251 59.8905 208.44C61.8958 207.587 63.9652 207.16 66.0985 207.16C68.9145 207.16 71.3252 207.757 73.3305 208.952C75.3785 210.147 76.8078 211.875 77.6185 214.136C79.0265 212.003 80.9678 210.317 83.4425 209.08C85.9172 207.8 88.4558 207.16 91.0585 207.16ZM109.239 225.208C109.879 221.667 111.159 218.531 113.079 215.8C115.041 213.069 117.431 210.957 120.247 209.464C123.063 207.928 126.007 207.16 129.079 207.16C131.852 207.16 134.177 207.715 136.055 208.824C137.932 209.891 139.34 211.235 140.279 212.856L141.175 207.736H148.535L142.326 243H134.967L135.927 237.752C134.391 239.416 132.449 240.803 130.103 241.912C127.799 243.021 125.281 243.576 122.551 243.576C119.905 243.576 117.537 242.979 115.447 241.784C113.399 240.589 111.777 238.904 110.583 236.728C109.431 234.509 108.855 231.971 108.855 229.112C108.855 227.832 108.983 226.531 109.239 225.208ZM138.103 225.336C138.273 224.525 138.359 223.651 138.359 222.712C138.359 219.853 137.505 217.613 135.799 215.992C134.135 214.328 132.044 213.496 129.527 213.496C127.649 213.496 125.815 213.965 124.023 214.904C122.231 215.8 120.673 217.144 119.351 218.936C118.028 220.685 117.153 222.776 116.727 225.208C116.556 226.019 116.47 226.893 116.47 227.832C116.47 230.733 117.303 233.037 118.967 234.744C120.673 236.408 122.785 237.24 125.303 237.24C127.18 237.24 129.015 236.771 130.807 235.832C132.599 234.893 134.156 233.528 135.479 231.736C136.801 229.901 137.676 227.768 138.103 225.336ZM192.601 207.16C196.996 207.16 200.494 208.397 203.097 210.872C205.742 213.347 207.065 216.675 207.065 220.856C207.065 221.837 206.958 223.011 206.745 224.376C206.574 225.315 206.276 226.467 205.849 227.832H178.905C178.862 228.131 178.841 228.579 178.841 229.176C178.841 231.693 179.609 233.699 181.145 235.192C182.724 236.685 184.772 237.432 187.289 237.432C191.257 237.432 194.308 235.789 196.441 232.504H204.313C202.692 235.747 200.302 238.413 197.145 240.504C193.988 242.552 190.34 243.576 186.201 243.576C183.257 243.576 180.676 243 178.457 241.848C176.238 240.696 174.51 239.053 173.273 236.92C172.036 234.744 171.417 232.205 171.417 229.304C171.417 228.067 171.545 226.744 171.801 225.336C172.441 221.709 173.742 218.531 175.705 215.8C177.668 213.027 180.1 210.893 183.001 209.4C185.945 207.907 189.145 207.16 192.601 207.16ZM199.449 222.584C199.534 221.816 199.577 221.261 199.577 220.92C199.577 218.573 198.788 216.717 197.209 215.352C195.673 213.987 193.668 213.304 191.193 213.304C188.59 213.304 186.244 214.136 184.153 215.8C182.062 217.464 180.633 219.725 179.865 222.584H199.449ZM228.901 225.08L237.093 243H228.837L223.333 231.032L214.053 243H206.437L220.901 225.656L212.645 207.736H220.901L226.405 219.704L235.685 207.736H243.301L228.901 225.08ZM255.143 212.92C256.679 211.299 258.599 209.933 260.903 208.824C263.249 207.715 265.767 207.16 268.455 207.16C271.143 207.16 273.532 207.736 275.623 208.888C277.713 210.04 279.335 211.683 280.487 213.816C281.639 215.949 282.215 218.445 282.215 221.304C282.215 222.541 282.087 223.843 281.831 225.208C281.191 228.749 279.889 231.928 277.927 234.744C276.007 237.517 273.639 239.693 270.823 241.272C268.049 242.808 265.127 243.576 262.055 243.576C259.367 243.576 257.063 243.043 255.143 241.976C253.265 240.867 251.793 239.501 250.727 237.88L246.887 259.768H239.59L248.743 207.736H256.039L255.143 212.92ZM274.407 225.208C274.577 224.397 274.663 223.523 274.663 222.584C274.663 219.725 273.809 217.507 272.103 215.928C270.439 214.307 268.327 213.496 265.767 213.496C263.932 213.496 262.097 213.965 260.263 214.904C258.471 215.843 256.913 217.208 255.591 219C254.268 220.792 253.393 222.904 252.967 225.336C252.796 226.147 252.711 227.021 252.711 227.96C252.711 230.819 253.543 233.08 255.207 234.744C256.913 236.408 259.025 237.24 261.543 237.24C263.42 237.24 265.255 236.771 267.047 235.832C268.881 234.851 270.46 233.443 271.783 231.608C273.105 229.773 273.98 227.64 274.407 225.208ZM307.414 207.16C311.808 207.16 315.307 208.397 317.91 210.872C320.555 213.347 321.878 216.675 321.878 220.856C321.878 221.837 321.771 223.011 321.558 224.376C321.387 225.315 321.088 226.467 320.662 227.832H293.718C293.675 228.131 293.654 228.579 293.654 229.176C293.654 231.693 294.422 233.699 295.958 235.192C297.536 236.685 299.584 237.432 302.102 237.432C306.07 237.432 309.12 235.789 311.254 232.504H319.126C317.504 235.747 315.115 238.413 311.958 240.504C308.8 242.552 305.152 243.576 301.014 243.576C298.07 243.576 295.488 243 293.27 241.848C291.051 240.696 289.323 239.053 288.086 236.92C286.848 234.744 286.23 232.205 286.23 229.304C286.23 228.067 286.358 226.744 286.614 225.336C287.254 221.709 288.555 218.531 290.518 215.8C292.48 213.027 294.912 210.893 297.814 209.4C300.758 207.907 303.958 207.16 307.414 207.16ZM314.262 222.584C314.347 221.816 314.39 221.261 314.39 220.92C314.39 218.573 313.6 216.717 312.022 215.352C310.486 213.987 308.48 213.304 306.006 213.304C303.403 213.304 301.056 214.136 298.966 215.8C296.875 217.464 295.446 219.725 294.678 222.584H314.262ZM337.826 213.944C339.276 211.811 340.983 210.147 342.946 208.952C344.951 207.757 347.17 207.16 349.602 207.16L348.258 214.712H346.402C343.586 214.712 341.324 215.416 339.618 216.824C337.911 218.232 336.716 220.664 336.034 224.12L332.706 243H325.41L331.618 207.736H338.914L337.826 213.944ZM360.724 203.064C359.572 203.064 358.633 202.701 357.908 201.976C357.183 201.251 356.82 200.333 356.82 199.224C356.82 197.731 357.375 196.451 358.484 195.384C359.636 194.275 360.937 193.72 362.388 193.72C363.54 193.72 364.457 194.083 365.14 194.808C365.865 195.533 366.228 196.451 366.228 197.56C366.228 199.053 365.673 200.355 364.564 201.464C363.455 202.531 362.175 203.064 360.724 203.064ZM363.476 207.736L357.268 243H349.972L356.18 207.736H363.476ZM388.351 207.16C392.746 207.16 396.244 208.397 398.847 210.872C401.492 213.347 402.815 216.675 402.815 220.856C402.815 221.837 402.708 223.011 402.495 224.376C402.324 225.315 402.026 226.467 401.599 227.832H374.655C374.612 228.131 374.591 228.579 374.591 229.176C374.591 231.693 375.359 233.699 376.895 235.192C378.474 236.685 380.522 237.432 383.039 237.432C387.007 237.432 390.058 235.789 392.191 232.504H400.063C398.442 235.747 396.052 238.413 392.895 240.504C389.738 242.552 386.09 243.576 381.951 243.576C379.007 243.576 376.426 243 374.207 241.848C371.988 240.696 370.26 239.053 369.023 236.92C367.786 234.744 367.167 232.205 367.167 229.304C367.167 228.067 367.295 226.744 367.551 225.336C368.191 221.709 369.492 218.531 371.455 215.8C373.418 213.027 375.85 210.893 378.751 209.4C381.695 207.907 384.895 207.16 388.351 207.16ZM395.199 222.584C395.284 221.816 395.327 221.261 395.327 220.92C395.327 218.573 394.538 216.717 392.959 215.352C391.423 213.987 389.418 213.304 386.943 213.304C384.34 213.304 381.994 214.136 379.903 215.8C377.812 217.464 376.383 219.725 375.615 222.584H395.199ZM389.567 199.352L379.391 204.856L380.415 199.16L390.527 193.848L398.719 199.16L397.695 204.856L389.567 199.352ZM430.475 207.16C434.187 207.16 437.131 208.163 439.307 210.168C441.526 212.131 442.635 214.968 442.635 218.68C442.635 219.619 442.528 220.792 442.315 222.2L438.603 243H431.371L434.891 223.288C435.062 222.093 435.147 221.24 435.147 220.728C435.147 218.381 434.486 216.589 433.163 215.352C431.883 214.115 430.091 213.496 427.787 213.496C425.014 213.496 422.667 214.349 420.747 216.056C418.87 217.72 417.675 220.131 417.163 223.288V223.096L413.643 243H406.347L412.555 207.736H419.851L419.147 211.832C420.598 210.381 422.304 209.251 424.267 208.44C426.272 207.587 428.342 207.16 430.475 207.16ZM448.614 225.336C449.254 221.709 450.534 218.531 452.454 215.8C454.416 213.027 456.827 210.893 459.686 209.4C462.587 207.907 465.723 207.16 469.094 207.16C473.36 207.16 476.71 208.184 479.142 210.232C481.574 212.237 482.96 215.117 483.302 218.872H475.43C475.088 217.123 474.299 215.757 473.062 214.776C471.824 213.795 470.139 213.304 468.006 213.304C465.019 213.304 462.459 214.371 460.326 216.504C458.192 218.595 456.784 221.539 456.102 225.336C455.888 226.701 455.782 227.811 455.782 228.664C455.782 231.48 456.486 233.656 457.894 235.192C459.302 236.685 461.264 237.432 463.782 237.432C468.006 237.432 471.12 235.576 473.126 231.864H480.998C479.334 235.448 476.902 238.307 473.702 240.44C470.544 242.531 466.875 243.576 462.694 243.576C458.256 243.576 454.736 242.317 452.134 239.8C449.531 237.24 448.23 233.784 448.23 229.432C448.23 228.109 448.358 226.744 448.614 225.336ZM497.037 203.064C495.885 203.064 494.946 202.701 494.22 201.976C493.495 201.251 493.133 200.333 493.133 199.224C493.133 197.731 493.687 196.451 494.797 195.384C495.949 194.275 497.25 193.72 498.701 193.72C499.853 193.72 500.77 194.083 501.453 194.808C502.178 195.533 502.541 196.451 502.541 197.56C502.541 199.053 501.986 200.355 500.877 201.464C499.767 202.531 498.487 203.064 497.037 203.064ZM499.789 207.736L493.581 243H486.285L492.493 207.736H499.789ZM503.864 225.208C504.504 221.667 505.784 218.531 507.704 215.8C509.666 213.069 512.056 210.957 514.872 209.464C517.688 207.928 520.632 207.16 523.704 207.16C526.477 207.16 528.802 207.715 530.68 208.824C532.557 209.891 533.965 211.235 534.904 212.856L535.8 207.736H543.16L536.951 243H529.592L530.552 237.752C529.016 239.416 527.074 240.803 524.728 241.912C522.424 243.021 519.906 243.576 517.176 243.576C514.53 243.576 512.162 242.979 510.072 241.784C508.024 240.589 506.402 238.904 505.208 236.728C504.056 234.509 503.48 231.971 503.48 229.112C503.48 227.832 503.608 226.531 503.864 225.208ZM532.728 225.336C532.898 224.525 532.984 223.651 532.984 222.712C532.984 219.853 532.13 217.613 530.424 215.992C528.76 214.328 526.669 213.496 524.152 213.496C522.274 213.496 520.44 213.965 518.648 214.904C516.856 215.8 515.298 217.144 513.976 218.936C512.653 220.685 511.778 222.776 511.352 225.208C511.181 226.019 511.095 226.893 511.095 227.832C511.095 230.733 511.928 233.037 513.592 234.744C515.298 236.408 517.41 237.24 519.928 237.24C521.805 237.24 523.64 236.771 525.432 235.832C527.224 234.893 528.781 233.528 530.104 231.736C531.426 229.901 532.301 227.768 532.728 225.336ZM563.559 198.52L557.223 229.56H551.143L555.815 198.52H563.559ZM551.975 243.448C550.823 243.448 549.884 243.085 549.159 242.36C548.433 241.635 548.071 240.717 548.071 239.608C548.071 238.115 548.625 236.835 549.735 235.768C550.887 234.659 552.188 234.104 553.639 234.104C554.791 234.104 555.708 234.467 556.391 235.192C557.116 235.917 557.479 236.835 557.479 237.944C557.479 239.437 556.924 240.739 555.815 241.848C554.705 242.915 553.425 243.448 551.975 243.448Z" fill="black"/>
<path d="M207.705 115.768C207.321 118.029 206.404 120.163 204.953 122.168C203.545 124.173 201.561 125.816 199.001 127.096C196.441 128.333 193.326 128.952 189.657 128.952H181.593L178.393 147H171.097L178.969 102.52H194.329C198.809 102.52 202.201 103.523 204.505 105.528C206.809 107.491 207.961 110.072 207.961 113.272C207.961 113.827 207.876 114.659 207.705 115.768ZM190.681 123.256C193.454 123.256 195.63 122.595 197.209 121.272C198.83 119.949 199.833 118.115 200.217 115.768C200.345 115.128 200.409 114.509 200.409 113.912C200.409 112.12 199.812 110.733 198.617 109.752C197.465 108.728 195.694 108.216 193.305 108.216H185.241L182.617 123.256H190.681ZM219.912 107.064C218.76 107.064 217.821 106.701 217.095 105.976C216.37 105.251 216.008 104.333 216.008 103.224C216.008 101.731 216.562 100.451 217.672 99.384C218.824 98.2747 220.125 97.72 221.576 97.72C222.728 97.72 223.645 98.0827 224.328 98.808C225.053 99.5333 225.416 100.451 225.416 101.56C225.416 103.053 224.861 104.355 223.752 105.464C222.642 106.531 221.362 107.064 219.912 107.064ZM222.664 111.736L216.456 147H209.16L215.368 111.736H222.664ZM233.587 141.048H249.587L248.499 147H224.05L225.139 141.048L245.299 117.688H229.235L230.259 111.736H254.707L253.683 117.688L233.587 141.048ZM263.712 141.048H279.712L278.624 147H254.175L255.264 141.048L275.424 117.688H259.36L260.384 111.736H284.832L283.808 117.688L263.712 141.048ZM286.989 129.208C287.629 125.667 288.909 122.531 290.829 119.8C292.791 117.069 295.181 114.957 297.997 113.464C300.813 111.928 303.757 111.16 306.829 111.16C309.602 111.16 311.927 111.715 313.805 112.824C315.682 113.891 317.09 115.235 318.029 116.856L318.925 111.736H326.285L320.076 147H312.717L313.677 141.752C312.141 143.416 310.199 144.803 307.853 145.912C305.549 147.021 303.031 147.576 300.301 147.576C297.655 147.576 295.287 146.979 293.197 145.784C291.149 144.589 289.527 142.904 288.333 140.728C287.181 138.509 286.605 135.971 286.605 133.112C286.605 131.832 286.733 130.531 286.989 129.208ZM315.853 129.336C316.023 128.525 316.109 127.651 316.109 126.712C316.109 123.853 315.255 121.613 313.549 119.992C311.885 118.328 309.794 117.496 307.277 117.496C305.399 117.496 303.565 117.965 301.773 118.904C299.981 119.8 298.423 121.144 297.101 122.936C295.778 124.685 294.903 126.776 294.477 129.208C294.306 130.019 294.22 130.893 294.22 131.832C294.22 134.733 295.053 137.037 296.717 138.744C298.423 140.408 300.535 141.24 303.053 141.24C304.93 141.24 306.765 140.771 308.557 139.832C310.349 138.893 311.906 137.528 313.229 135.736C314.551 133.901 315.426 131.768 315.853 129.336Z" fill="#F07807"/>
</svg>
